# xmcd
#
# Track frame offsets: 
#        150
#        12733
#        26608
#        40489
#        53767
#        66462
#        80030
#        93258
#        107817
#        121841
#        135203
#        149227
#        162001
#        173667
#        183554
#        197138
#        209490
#        220916
#        230983
#        244127
#        257547
#        267371
#        278989
#        291467
#        304286
#        316601
#        325518
#        336426
#        346850
#
# Disc length: 4777 seconds
#
# Revision: 0
# Processed by: cddbd v1.5.2PL0 Copyright (c) Steve Scherf et al.
# Submitted via: ExactAudioCopy v1.0b4
#
DISCID=c512a71d
DTITLE=Eddie Taylor - In Session - Diary Of A Chicago Bluesman 1953-19
DTITLE=57
DYEAR=2016
DGENRE=Blues
TTITLE0=Ice Cream Man
TTITLE1=Lifetime Blues
TTITLE2=You Don't Have To Go
TTITLE3=Going Back To Memphis
TTITLE4=The Devil Is A Busy man
TTITLE5=Shake It Baby
TTITLE6=Bassology
TTITLE7=Schooldays On My Mind
TTITLE8=Ain't Times Hard
TTITLE9=Any Old Lonesome Day
TTITLE10=Tough Times
TTITLE11=Gary Stomp
TTITLE12=Falling Rain Blues
TTITLE13=Four Day Jump
TTITLE14=Bad Boy
TTITLE15=ET Blues
TTITLE16=Wheel And Deal
TTITLE17=Ain't That Loving You Baby
TTITLE18=Ride 'Em Dowm
TTITLE19=Big Town Playboy
TTITLE20=Dimples
TTITLE21=You'll Always Have A Home
TTITLE22=Don't Knock At My Door
TTITLE23=You Got Me Dizzy
TTITLE24=Crawlin' Black Spider
TTITLE25=I'm Gonna Love You
TTITLE26=Lookin' For Trouble
TTITLE27=Find My Way
TTITLE28=Stroll Out West
EXTD=
EXTT0=
EXTT1=
EXTT2=
EXTT3=
EXTT4=
EXTT5=
EXTT6=
EXTT7=
EXTT8=
EXTT9=
EXTT10=
EXTT11=
EXTT12=
EXTT13=
EXTT14=
EXTT15=
EXTT16=
EXTT17=
EXTT18=
EXTT19=
EXTT20=
EXTT21=
EXTT22=
EXTT23=
EXTT24=
EXTT25=
EXTT26=
EXTT27=
EXTT28=
PLAYORDER=
